<?xml version="1.0" standalone="no"?>
<!DOCTYPE svg PUBLIC "-//W3C//DTD SVG 20010904//EN"
 "http://www.w3.org/TR/2001/REC-SVG-20010904/DTD/svg10.dtd">
<svg version="1.0" xmlns="http://www.w3.org/2000/svg"
 width="128.000000pt" height="128.000000pt" viewBox="0 0 128.000000 128.000000"
 preserveAspectRatio="xMidYMid meet">
<metadata>
Created by potrace 1.11, written by Peter Selinger 2001-2013
</metadata>
<g transform="translate(0.000000,128.000000) scale(0.100000,-0.100000)"
fill="#000000" stroke="none">
<path d="M96 1184 c-8 -21 -8 -24 5 -24 6 0 24 -9 40 -21 24 -17 27 -24 18
-35 -11 -13 -9 -15 16 -14 3 0 19 -7 36 -15 41 -22 58 -14 30 12 -13 12 -20
26 -16 32 3 6 -5 16 -19 23 -14 6 -26 15 -26 20 0 4 -5 8 -11 8 -6 0 -17 7
-25 15 -20 19 -40 19 -48 -1z"/>
<path d="M1130 1178 c-14 -13 -25 -21 -25 -19 0 3 -12 -3 -27 -13 -15 -10 -25
-22 -22 -27 6 -10 -7 -24 -46 -53 -19 -14 -20 -17 -5 -11 11 4 28 8 37 10 9 2
27 9 40 16 13 7 24 12 26 11 1 -1 7 -2 13 -2 8 0 8 4 0 14 -9 11 -6 18 18 35
16 12 34 21 40 21 17 0 13 27 -5 34 -20 8 -17 9 -44 -16z"/>
<path d="M549 1172 c-176 -47 -286 -221 -250 -394 7 -34 25 -87 40 -117 70
-140 89 -214 96 -371 2 -36 4 -72 4 -81 1 -22 50 -69 70 -69 10 0 22 -5 29
-12 17 -17 74 -35 108 -33 40 2 156 61 173 88 8 12 15 53 17 92 6 157 24 235
80 349 42 83 72 190 67 231 -24 187 -147 311 -328 330 -22 2 -70 -4 -106 -13z"/>
<path d="M270 1060 c0 -5 5 -10 11 -10 5 0 7 5 4 10 -3 6 -8 10 -11 10 -2 0
-4 -4 -4 -10z"/>
<path d="M87 671 c-15 -10 -30 -20 -33 -23 -3 -3 27 -38 66 -77 l70 -71 -29
-18 c-27 -16 -28 -19 -13 -30 71 -49 219 -145 231 -150 9 -3 7 2 -5 15 -10 11
-30 34 -44 52 -14 18 -33 41 -42 52 -23 24 -23 34 2 45 18 9 17 11 -13 45 -18
20 -48 55 -67 78 -59 70 -87 101 -91 100 -2 0 -16 -8 -32 -18z"/>
<path d="M1153 676 c-7 -12 -55 -69 -141 -164 -31 -35 -31 -37 -12 -46 25 -11
25 -21 3 -44 -10 -10 -29 -33 -43 -52 -14 -18 -31 -39 -39 -47 -33 -33 2 -17
99 47 156 103 144 91 110 112 l-30 18 70 71 c39 39 70 72 70 74 0 5 -66 45
-73 45 -3 0 -10 -6 -14 -14z"/>
</g>
</svg>
